<?xml version="1.0" encoding="UTF-8"?>
<svg id="Layer_1" data-name="Layer 1" xmlns="http://www.w3.org/2000/svg" viewBox="0 0 32 32">
  <defs>
    <style>
      .cls-1 {
        fill: #fff;
      }

      .cls-2 {
        isolation: isolate;
      }

      .cls-3 {
        fill: #030303;
      }

      .cls-4 {
        fill: #ed1c24;
      }
    </style>
  </defs>
  <rect class="cls-4" width="32" height="32"/>
  <g class="cls-2">
    <g>
      <polygon class="cls-3" points="28.21 19.57 20.99 27.01 16.65 29.06 23.87 21.62 28.21 19.57"/>
      <path class="cls-1" d="M25.78,18.46l.25.28c-.52.24-1.58.74-2.1.99-1.31-1.97-2.77-4.16-4.07-6.13-.52,1.07-1.58,3.26-2.12,4.36-.76-.65-1.66-1.43-2.45-2.11-.11-.1-.22-.19-.33-.29.82-.77,2.6-2.45,3.4-3.21-2.03-.94-4.39-2.05-6.42-2.99l.41-2.54c.73.49,1.51,1.02,2.3,1.55,1.32.89,2.68,1.81,3.89,2.63-.52-1.73-1.35-4.48-1.88-6.22l3.04.87c.12,1.39.37,4.39.48,5.76,1.22-.21,3.92-.65,5.16-.86l1.49,3.1c-1.5-.14-4.41-.41-5.88-.55.38.42,3.38,3.78,3.81,4.26.21.24.87.97.99,1.1Z"/>
      <path class="cls-3" d="M28.92,15.23l-2.39,2.47c-.14-.16-.28-.31-.42-.48-.1-.11-.22-.24-.33-.37-.15-.17-.3-.33-.44-.49-.1-.11-.2-.22-.29-.33-.29-.33-.56-.62-.76-.85-.07-.07-.12-.14-.17-.19-.03-.04-.07-.07-.09-.1-.07-.08-.12-.13-.12-.13,1.09.1,3.9.37,5.02.47Z"/>
      <path class="cls-3" d="M23.87,21.62l-7.22,7.44-2.74-4.13c.21-.21.41-.42.61-.63.28-.28.55-.56.82-.84.04-.04.08-.08.12-.12.27-.28.53-.55.8-.82.81-.83,1.61-1.65,2.34-2.41.51-1.04,1.29-2.66,1.8-3.71,1.09,1.65,2.38,3.58,3.47,5.23Z"/>
      <path class="cls-3" d="M18.6,20.1c-.74.76-4.48,4.62-4.69,4.83-.88.9-1.73,1.79-2.53,2.61l-5.73-4.95c.86-.89,1.79-1.84,2.74-2.82.14-.15.28-.29.42-.44.19-.2,1.32-1.35,1.69-1.73.2-.2.39-.4.58-.6.17-.17.33-.34.49-.51l1.32-1.32c.57.49,1.15.99,1.72,1.48,1.33,1.15,2.67,2.31,3.99,3.45Z"/>
      <path class="cls-3" d="M16.41,8.23c-.21-.14-3.92-2.65-4.06-2.75l2.47-2.54c.4,1.31,1.2,3.99,1.59,5.29Z"/>
      <path class="cls-3" d="M24.02,14.88c-.07-.08-.12-.13-.12-.13,1.09.1,3.9.37,5.02.47l-3.05-6.32-4.4.73-.41-4.9-6.24-1.8c.4,1.31,1.2,3.99,1.59,5.29-.21-.14-4.91-3.31-5.27-3.57-.24,1.48-.6,3.72-.84,5.19,1.7.79,3.77,1.76,5.47,2.55l-2.07,1.96c-.27.26-.55.53-.82.8.57.49,4.4,3.8,5.71,4.93.51-1.04,1.29-2.66,1.8-3.71,1.09,1.65,2.38,3.58,3.47,5.23l4.34-2.05c-.31-.35-.97-1.08-1.68-1.88-.14-.16-2.48-2.78-2.51-2.81ZM23.94,19.73c-1.31-1.97-2.77-4.16-4.07-6.13-.52,1.07-1.58,3.26-2.12,4.36-.76-.65-1.66-1.43-2.45-2.11-.11-.1-.22-.19-.33-.29.82-.77,2.6-2.45,3.4-3.21-2.03-.94-4.39-2.05-6.42-2.99l.41-2.54c.73.49,1.51,1.02,2.3,1.55,1.32.89,2.68,1.81,3.89,2.63-.52-1.73-1.35-4.48-1.88-6.22l3.04.87c.12,1.39.37,4.39.48,5.76,1.22-.21,3.92-.65,5.16-.86l1.49,3.1c-1.5-.14-4.41-.41-5.88-.55.1.12,5.05,5.64,5.05,5.64-.52.24-1.58.74-2.1.99Z"/>
      <path class="cls-3" d="M11.14,4.67c-.24,1.48-.6,3.72-.84,5.19-2.21,2.28-5.02,5.17-7.22,7.44l.84-5.19,7.22-7.44Z"/>
      <path class="cls-3" d="M15.77,12.41c-.67.61-2.61,2.49-2.89,2.76,0,0-4.36,4.45-4.5,4.6l-5.3-2.47c2.2-2.27,5.02-5.16,7.22-7.44,1.7.79,3.77,1.76,5.47,2.55Z"/>
    </g>
  </g>
</svg>