<?xml version="1.0" encoding="UTF-8"?>
<svg id="Layer_1" xmlns="http://www.w3.org/2000/svg" version="1.1" viewBox="0 0 300 300">
  <!-- Generator: Adobe Illustrator 30.2.1, SVG Export Plug-In . SVG Version: 2.1.1 Build 1)  -->
  <defs>
    <style>
      .st0 {
        fill: #fff;
      }
    </style>
  </defs>
  <path d="M299.92,153.3l-31.3-96.38-77.43,35.42,9.06-84.84h0s-100.5-.01-100.5-.01l9.88,85.67L31.38,56.91.08,153.3l84.84,17.3-58.48,63.43,81.55,58.48,42.83-74.96,42.01,74.96,80.73-58.48-57.66-63.43,84.02-17.3ZM247.67,231.34l-49.23,35.66-32.48-57.95-15-26.76-15.22,26.63-33.29,58.25-49.96-35.83,45.18-49,20.86-22.63-30.16-6.15-65.8-13.41,19.25-59.28,60.49,28.02,28.09,13.01-3.55-30.75-7.65-66.32h61.71l.03.02-7.01,65.64-3.24,30.31,27.72-12.68,59.72-27.32,19.29,59.41-65.02,13.38-29.83,6.14,20.49,22.54,44.61,49.07Z"/>
  <polygon class="st0" points="203.06 182.27 247.67 231.34 198.44 267 165.96 209.05 150.96 182.29 135.74 208.92 102.45 267.17 52.49 231.34 97.67 182.34 118.53 159.71 88.37 153.56 22.57 140.15 41.82 80.87 102.31 108.89 130.4 121.9 126.85 91.15 119.2 24.83 180.91 24.83 180.94 24.85 173.93 90.49 170.69 120.8 198.41 108.12 258.13 80.8 277.42 140.21 212.4 153.59 182.57 159.73 203.06 182.27"/>
</svg>